<svg xmlns="http://www.w3.org/2000/svg" xmlns:xlink="http://www.w3.org/1999/xlink" id="svg2" width="742" height="700" version="1.0"><defs id="defs4"><linearGradient id="linearGradient5144"><stop id="stop5142" offset="0" stop-color="#9ebeff" stop-opacity="1"/><stop id="stop5140" offset="1" stop-color="#cecece" stop-opacity="1"/></linearGradient><linearGradient id="linearGradient5132"><stop id="stop5128" offset="0" stop-color="#1400c6" stop-opacity="1"/><stop id="stop5134" offset=".5" stop-color="#7ba6ff" stop-opacity="1"/><stop id="stop5130" offset="1" stop-color="#c1d5ff" stop-opacity="1"/></linearGradient><linearGradient id="linearGradient3263"><stop id="stop3265" offset="0" stop-color="#fff" stop-opacity="1"/><stop id="stop3267" offset="1" stop-color="#fff" stop-opacity="0"/></linearGradient><linearGradient id="linearGradient3201"><stop id="stop3203" offset="0" stop-color="#7f7f7f" stop-opacity="1"/><stop id="stop3209" offset=".5" stop-color="#cdcdcd" stop-opacity="1"/><stop id="stop3205" offset="1" stop-color="#fff" stop-opacity="0"/></linearGradient><linearGradient id="linearGradient3177"><stop id="stop3179" offset="0" stop-color="#ff1717" stop-opacity="1"/><stop id="stop3181" offset="1" stop-color="#a80505" stop-opacity="1"/></linearGradient><linearGradient id="linearGradient3549" x1="29.2" x2="706" y1="522.1" y2="212.9" gradientTransform="translate(4 198)" gradientUnits="userSpaceOnUse" xlink:href="#linearGradient5132"/><linearGradient id="linearGradient3552" x1="176.1" x2="552.7" y1="284.6" y2="284.6" gradientTransform="translate(4 198)" gradientUnits="userSpaceOnUse" xlink:href="#linearGradient3177"/><linearGradient id="linearGradient3554" x1="175.1" x2="553.7" y1="284.6" y2="284.6" gradientTransform="translate(4 198)" gradientUnits="userSpaceOnUse" xlink:href="#linearGradient3263"/><linearGradient id="linearGradient5136" x1="578.3" x2="578.3" y1="539.5" y2="92.1" gradientTransform="translate(3 199)" gradientUnits="userSpaceOnUse" xlink:href="#linearGradient3201"/><linearGradient id="linearGradient5146" x1="582.9" x2="672.1" y1="330.9" y2="440.7" gradientTransform="translate(7 1)" gradientUnits="userSpaceOnUse" xlink:href="#linearGradient5144"/><marker id="Arrow1Mend" orient="auto" overflow="visible" refX="0" refY="0"><path id="path3971" fill-rule="evenodd" stroke="#000" stroke-width=".4pt" marker-start="none" d="M-4 0l-2 2 7-2-7-2 2 2z"/></marker><filter id="filter5158" width="1.2" height="1.2" x="0" y="0" color-interpolation-filters="sRGB"><feGaussianBlur id="feGaussianBlur5160" stdDeviation="12.5"/></filter></defs><g id="layer1" display="inline" transform="translate(-55 -150)"><path id="path3172" fill="none" stroke="#000" stroke-linecap="butt" stroke-linejoin="miter" stroke-opacity="1" stroke-width="1" d="M183 713s20-37 40-59"/><path id="path3174" fill="url(#linearGradient3552)" fill-opacity="1" fill-rule="evenodd" stroke="url(#linearGradient3554)" stroke-dasharray="none" stroke-linecap="butt" stroke-linejoin="miter" stroke-miterlimit="4" stroke-opacity="1" stroke-width="3" d="M304 254l-124 2c-2 0 2 407 0 458-1 5 42-55 42-55l2-12c-1-39 4-147 4-147s4-77 34-110c19-22 28-32 46-44a496 496 0 01109-51l30-10 76-22 33-8-252-1z"/><path id="path3187" fill="url(#linearGradient3549)" fill-opacity="1" fill-rule="evenodd" stroke="none" d="M441 285c-34 9-92 34-129 58-35 22-67 54-77 78-10 26-14 69-13 96l1 110-1 31s32-34 66-57c33-23 110-64 110-64l42-23 240-141V256H546l-105 29z"/><path id="path3199" fill="url(#linearGradient5136)" fill-opacity="1" fill-rule="evenodd" stroke="none" stroke-dasharray="none" stroke-linecap="butt" stroke-linejoin="miter" stroke-miterlimit="4" stroke-opacity="1" stroke-width="3" d="M680 372v365l-498 1v-25l42-58s18-20 37-35 29-25 61-43l78-41 39-23"/><path id="path5138" fill="url(#linearGradient5146)" fill-opacity="1" stroke="none" stroke-dasharray="none" stroke-linecap="round" stroke-linejoin="round" stroke-miterlimit="4" stroke-opacity="1" stroke-width=".9" d="M546 256L446 499h241l18-256z" filter="url(#filter5158)" opacity="1" paint-order="stroke fill markers" transform="matrix(1.10822 0 0 1.10684 -74 -27)"/></g><g id="layer4" display="inline"><ellipse id="path3301" cx="427.8" cy="306.9" fill="#000" fill-opacity="1" stroke="none" display="inline" rx="14.6" ry="14.1" transform="matrix(.48276 0 0 .53571 176 198)"/><path id="path4048" fill="none" stroke="#000" stroke-dasharray="none" stroke-linecap="butt" stroke-linejoin="miter" stroke-miterlimit="4" stroke-opacity="1" stroke-width="3" d="M168 507l1-30-1-111c-1-27 3-70 13-96 10-24 42-56 77-78 37-24 102-50 129-58 33-10 94-25 107-28" display="inline"/><path id="path4279" fill="none" fill-opacity="1" fill-rule="evenodd" stroke="#000" stroke-dasharray="none" stroke-linecap="butt" stroke-linejoin="miter" stroke-miterlimit="4" stroke-opacity="1" stroke-width="3" d="M127 563l42-58s18-21 37-36c20-15 30-25 61-42l78-41c11-5 39-23 39-23" display="inline"/><ellipse id="path4050" cx="427.8" cy="306.9" fill="#fff" fill-opacity="1" stroke="#000" stroke-dasharray="none" stroke-miterlimit="4" stroke-opacity="1" stroke-width="4.1" display="inline" rx="14.6" ry="14.1" transform="matrix(.48276 0 0 .53571 -38 340)"/></g><g id="layer2" fill-opacity="1" stroke="none" display="inline" font-family="sans-serif" font-stretch="normal" font-style="normal" font-variant="normal" transform="translate(-55 -150)" writing-mode="lr-tb"><text id="text3271" x="236" y="314" fill="#fff" font-weight="700" text-anchor="start" style="line-height:0%;-inkscape-font-specification:'Sans Bold';text-align:start" xml:space="preserve"><tspan style="line-height:1.25" id="tspan3273" x="236" y="314" font-family="sans-serif" font-size="22">solide</tspan></text><text id="text3275" x="305" y="471" fill="#fff" font-weight="700" text-anchor="start" style="line-height:0%;-inkscape-font-specification:'Sans Bold';text-align:start" xml:space="preserve"><tspan style="line-height:1.25" id="tspan3277" x="305" y="471" font-family="sans-serif" font-size="22">liquide</tspan></text><text id="text3279" x="435" y="656" fill="#000" font-weight="700" text-anchor="start" style="line-height:0%;-inkscape-font-specification:'Sans Bold';text-align:start" xml:space="preserve"><tspan style="line-height:1.25" id="tspan3281" x="435" y="656" font-family="sans-serif" font-size="22">gaz</tspan></text><text id="text3283" x="567" y="378" fill="#000" font-weight="700" text-anchor="middle" style="line-height:0%;-inkscape-font-specification:'Sans Bold';text-align:center" xml:space="preserve"><tspan style="line-height:1.25" id="tspan3285" x="567" y="378" font-family="sans-serif" font-size="22">fluide</tspan><tspan style="line-height:1.25" id="tspan3287" x="567" y="405" font-family="sans-serif" font-size="22">supercritique</tspan></text><text style="line-height:0%;-inkscape-font-specification:Sans;text-align:start" id="text4052" x="234" y="668" fill="#fff" font-weight="400" text-anchor="start" xml:space="preserve"><tspan style="line-height:1.25" id="tspan4056" x="234" y="668" font-family="sans-serif" font-size="22">point triple</tspan></text><text id="text4058" x="438" y="544" fill="#000" font-weight="400" text-anchor="start" style="line-height:0%;-inkscape-font-specification:Sans;text-align:start" xml:space="preserve"><tspan style="line-height:1.25" id="tspan4062" x="438" y="544" font-family="sans-serif" font-size="22">point critique</tspan></text></g><g id="layer3" display="inline"><path id="rect5173" fill="#fff" fill-opacity="1" stroke="none" stroke-dasharray="none" stroke-linecap="round" stroke-linejoin="round" stroke-miterlimit="4" stroke-opacity="1" stroke-width=".9" d="M0 0v700h742V0H0zm127 106h499v483H127V106z" opacity="1" paint-order="stroke fill markers"/><path id="path4589" fill="none" stroke="#000" stroke-dasharray="10 10" stroke-dashoffset="0" stroke-linecap="butt" stroke-linejoin="miter" stroke-miterlimit="4" stroke-opacity="1" stroke-width="5" marker-end="url(#Arrow1Mend)" d="M182 377V161" transform="translate(-55 -150)"/><text id="text3243" x="78" y="264" fill="#000" fill-opacity="1" stroke="none" font-family="Bitstream Vera Sans" font-style="normal" font-weight="400" style="line-height:0%" transform="translate(-55 -150)" xml:space="preserve"><tspan style="line-height:1.25" id="tspan3245" x="78" y="264" font-size="22">10000</tspan></text><text id="text3247" x="88" y="384" fill="#000" fill-opacity="1" stroke="none" font-family="Bitstream Vera Sans" font-style="normal" font-weight="400" style="line-height:0%" transform="translate(-55 -150)" xml:space="preserve"><tspan style="line-height:1.25" id="tspan3249" x="88" y="384" font-size="22">1 000</tspan></text><text id="text3251" x="106" y="507" fill="#000" fill-opacity="1" stroke="none" font-family="Bitstream Vera Sans" font-style="normal" font-weight="400" style="line-height:0%" transform="translate(-55 -150)" xml:space="preserve"><tspan style="line-height:1.25" id="tspan3253" x="106" y="507" font-size="22">100</tspan></text><text id="text3255" x="119" y="626" fill="#000" fill-opacity="1" stroke="none" font-family="Bitstream Vera Sans" font-style="normal" font-weight="400" style="line-height:0%" transform="translate(-55 -150)" xml:space="preserve"><tspan style="line-height:1.25" id="tspan3257" x="119" y="626" font-size="22">10</tspan></text><text id="text3259" x="131" y="746" fill="#000" fill-opacity="1" stroke="none" font-family="Bitstream Vera Sans" font-style="normal" font-weight="400" style="line-height:0%" transform="translate(-55 -150)" xml:space="preserve"><tspan style="line-height:1.25" id="tspan3261" x="131" y="746" font-size="22">1</tspan></text><text id="text3289" x="160" y="788" fill="#000" fill-opacity="1" stroke="none" font-family="Bitstream Vera Sans" font-style="normal" font-weight="400" style="line-height:0%" transform="translate(-55 -150)" xml:space="preserve"><tspan style="line-height:1.25" id="tspan3291" x="160" y="788" font-size="22">200</tspan></text><text id="text3293" x="436" y="813" fill="#000" fill-opacity="1" stroke="none" font-family="sans-serif" font-stretch="normal" font-style="normal" font-variant="normal" font-weight="400" text-anchor="middle" style="line-height:0%;-inkscape-font-specification:Sans;text-align:center" transform="translate(-55 -150)" writing-mode="lr-tb" xml:space="preserve"><tspan style="line-height:1.25" id="tspan4068" x="436" y="813" font-family="sans-serif" font-size="22">Température</tspan><tspan style="line-height:1.25" id="tspan4070" x="436" y="840" font-family="sans-serif" font-size="22">T (K)</tspan></text><text id="text3297" x="-504" y="72" fill="#000" fill-opacity="1" stroke="none" font-family="sans-serif" font-stretch="normal" font-style="normal" font-variant="normal" font-weight="400" text-anchor="middle" transform="rotate(-90 -103 -48)" writing-mode="lr-tb" style="line-height:0%;-inkscape-font-specification:Sans;text-align:center" xml:space="preserve"><tspan style="line-height:1.25" id="tspan4064" x="-504" y="72" font-family="sans-serif" font-size="22">Pression</tspan><tspan style="line-height:1.25" id="tspan4066" x="-504" y="100" font-family="sans-serif" font-size="22">P (bar)</tspan></text><path id="rect3166" fill="none" stroke="#000" stroke-dasharray="none" stroke-dashoffset="0" stroke-miterlimit="4" stroke-opacity="1" stroke-width="4.2" d="M127 106h499v483H127z"/><path id="rect3303" fill="#000" fill-opacity="1" stroke="none" d="M163 732h18v9h-18z" transform="translate(-55 -150)"/><path id="rect3305" fill="#000" fill-opacity="1" stroke="none" d="M163 619h18v9h-18z" transform="translate(-55 -150)"/><path id="rect3307" fill="#000" fill-opacity="1" stroke="none" d="M163 500h18v9h-18z" transform="translate(-55 -150)"/><path id="rect3309" fill="#000" fill-opacity="1" stroke="none" d="M163 376h18v9h-18z" transform="translate(-55 -150)"/><path id="rect3311" fill="#000" fill-opacity="1" stroke="none" d="M163 254h18v9h-18z" transform="translate(-55 -150)"/><path id="rect3313" fill="#000" fill-opacity="1" stroke="none" d="M179 738h7v21h-7z" transform="translate(-55 -150)"/><path id="rect3315" fill="#000" fill-opacity="1" stroke="none" d="M304 738h7v21h-7z" transform="translate(-55 -150)"/><path id="rect3317" fill="#000" fill-opacity="1" stroke="none" d="M431 738h7v21h-7z" transform="translate(-55 -150)"/><path id="rect3319" fill="#000" fill-opacity="1" stroke="none" d="M552 738h7v21h-7z" transform="translate(-55 -150)"/><path id="rect3321" fill="#000" fill-opacity="1" stroke="none" d="M675 738h7v21h-7z" transform="translate(-55 -150)"/><text id="text3557" x="291" y="788" fill="#000" fill-opacity="1" stroke="none" font-family="Bitstream Vera Sans" font-style="normal" font-weight="400" style="line-height:0%" transform="translate(-55 -150)" xml:space="preserve"><tspan style="line-height:1.25" id="tspan3559" x="291" y="788" font-size="22">250</tspan></text><text id="text3561" x="417" y="788" fill="#000" fill-opacity="1" stroke="none" font-family="Bitstream Vera Sans" font-style="normal" font-weight="400" style="line-height:0%" transform="translate(-55 -150)" xml:space="preserve"><tspan style="line-height:1.25" id="tspan3563" x="417" y="788" font-size="22">300</tspan></text><text id="text3565" x="536" y="788" fill="#000" fill-opacity="1" stroke="none" font-family="Bitstream Vera Sans" font-style="normal" font-weight="400" style="line-height:0%" transform="translate(-55 -150)" xml:space="preserve"><tspan style="line-height:1.25" id="tspan3567" x="536" y="788" font-size="22">350</tspan></text><text id="text3569" x="660" y="788" fill="#000" fill-opacity="1" stroke="none" font-family="Bitstream Vera Sans" font-style="normal" font-weight="400" style="line-height:0%" transform="translate(-55 -150)" xml:space="preserve"><tspan style="line-height:1.25" id="tspan3571" x="660" y="788" font-size="22">400</tspan><tspan style="line-height:1.25" id="tspan3573" x="660" y="816" font-size="22"></tspan></text><path id="path3957" fill="none" stroke="#000" stroke-dasharray="10 10" stroke-dashoffset="0" stroke-linecap="butt" stroke-linejoin="miter" stroke-miterlimit="4" stroke-opacity="1" stroke-width="5" marker-end="url(#Arrow1Mend)" d="M569 738h216" transform="translate(-55 -150)"/></g></svg>